<svg height='100px' width='100px'  fill="#000000" xmlns:x="http://ns.adobe.com/Extensibility/1.0/" xmlns:i="http://ns.adobe.com/AdobeIllustrator/10.0/" xmlns:graph="http://ns.adobe.com/Graphs/1.0/" xmlns="http://www.w3.org/2000/svg" xmlns:xlink="http://www.w3.org/1999/xlink" version="1.1" x="0px" y="0px" viewBox="0 0 100 100" style="enable-background:new 0 0 100 100;" xml:space="preserve"><g><g i:extraneous="self"><g><path d="M5273.1,2400.1v-2c0-2.8-5-4-9.7-4s-9.7,1.3-9.7,4v2c0,1.8,0.7,3.6,2,4.9l5,4.9c0.3,0.3,0.4,0.6,0.4,1v6.4     c0,0.4,0.2,0.7,0.6,0.8l2.9,0.9c0.5,0.1,1-0.2,1-0.8v-7.2c0-0.4,0.2-0.7,0.4-1l5.1-5C5272.4,2403.7,5273.1,2401.9,5273.1,2400.1z      M5263.4,2400c-4.8,0-7.4-1.3-7.5-1.8v0c0.1-0.5,2.7-1.8,7.5-1.8c4.8,0,7.3,1.3,7.5,1.8C5270.7,2398.7,5268.2,2400,5263.4,2400z"></path><path d="M5268.4,2410.3c-0.6,0-1,0.4-1,1c0,0.6,0.4,1,1,1h4.3c0.6,0,1-0.4,1-1c0-0.6-0.4-1-1-1H5268.4z"></path><path d="M5272.7,2413.7h-4.3c-0.6,0-1,0.4-1,1c0,0.6,0.4,1,1,1h4.3c0.6,0,1-0.4,1-1C5273.7,2414.1,5273.3,2413.7,5272.7,2413.7z"></path><path d="M5272.7,2417h-4.3c-0.6,0-1,0.4-1,1c0,0.6,0.4,1,1,1h4.3c0.6,0,1-0.4,1-1C5273.7,2417.5,5273.3,2417,5272.7,2417z"></path></g><g><path d="M88.8,63.1c5.5-4.1,8.7-9.8,8.7-15.9c0-11.8-11.9-21.5-26.5-21.5c-8.5,0-16.1,3.3-20.9,8.4c-4.9-5.1-12.4-8.4-21-8.4     c-14.6,0-26.5,9.6-26.5,21.5c0,5.8,2.9,11.4,8.1,15.4c-0.4,1.4-1.1,2.7-1.8,3.9c-1.1,1.8-1.1,4,0.2,5.7c0.8,1,1.9,1.7,3.2,1.9     c0.3,0,0.5,0.1,0.8,0.1c0.5,0,1-0.1,1.5-0.2c3.2-1,6.6-2.9,10.1-5.6c1.5,0.2,3.1,0.3,4.6,0.3c8.5,0,16.1-3.3,21-8.4     c4.9,5.1,12.4,8.4,20.9,8.4c1.5,0,3-0.1,4.6-0.3c3.6,2.6,11.2,4.8,13.5,4.8c0.1,0,0.1,0,0.2,0c0.7,0,1.5-0.4,1.9-1     c1.2-1.6,0.2-3.2-0.6-4.5C89.4,66.1,88.6,64.6,88.8,63.1z M29,64.2c-1.6,0-3.2-0.1-4.8-0.4c-0.6-0.1-1.3,0.1-1.8,0.5     c-3.3,2.7-6.5,4.5-9.4,5.4c0,0-0.4-0.2-0.4-0.2c-0.1-0.1-0.1-0.2,0-0.4c1.3-2.1,2.3-4.3,2.9-6.8c0.2-0.9-0.2-1.8-0.9-2.4     C9.7,56.6,7,52,7,47.3c0-9.3,9.9-16.9,22-16.9c12.1,0,22,7.6,22,16.9S41.2,64.2,29,64.2z M82.1,43.9L71.4,54.6     c-0.4,0.4-1,0.7-1.6,0.7c-0.6,0-1.2-0.2-1.6-0.7l-6.1-6.1c-0.9-0.9-0.9-2.3,0-3.2s2.3-0.9,3.2,0l4.5,4.5l9.1-9.1     c0.9-0.9,2.3-0.9,3.2,0S83,43,82.1,43.9z"></path><path d="M29.1,35.7c-5,0-7.2,3.6-7.7,6.6c-0.1,0.4,0.1,0.7,0.3,1c0.2,0.3,0.6,0.5,1,0.5h1.8c0.6,0,1.2-0.5,1.3-1.1     c0.2-1.2,1-2.7,3.4-2.7c1.9,0,2.6,1,2.9,1.6c0.4,0.9,0.4,1.8-0.2,2.6c-0.5,0.7-1.1,1.1-1.7,1.5c-1.5,1-2.7,2.2-3,5.3     c0,0.4,0.1,0.7,0.3,1c0.2,0.3,0.6,0.4,0.9,0.4h1.7c0.7,0,1.2-0.5,1.3-1.2c0.1-1.2,0.4-1.4,1.2-2c0.7-0.5,1.7-1.2,2.7-2.5     c1.5-2,1.7-4.8,0.5-7.1C34.7,37.2,32.1,35.7,29.1,35.7z"></path><circle cx="29.4" cy="56.8" r="2.6"></circle></g></g></g></svg>